<?xml version="1.0" standalone="no"?>
<!DOCTYPE svg PUBLIC "-//W3C//DTD SVG 20010904//EN"
 "http://www.w3.org/TR/2001/REC-SVG-20010904/DTD/svg10.dtd">
<svg version="1.0" xmlns="http://www.w3.org/2000/svg"
 width="100.000000pt" height="59.663866pt" viewBox="0 0 100.000000 59.663866"
 preserveAspectRatio="xMidYMid meet">
<metadata>
Created by potrace 1.16, written by Peter Selinger 2001-2019
</metadata>
<g transform="translate(0.000000,59.663866) scale(0.042017,-0.042017)"
fill="#000000" stroke="none">
<path d="M160 1180 l0 -80 80 0 79 0 3 -77 3 -78 78 -3 77 -3 0 -74 0 -75 80
0 80 0 0 -80 0 -79 78 -3 77 -3 3 -77 3 -78 74 0 75 0 0 -80 0 -80 80 0 80 0
0 -75 0 -75 80 0 80 0 0 75 0 75 80 0 80 0 0 80 0 80 75 0 75 0 0 80 0 80 80
0 80 0 0 80 0 80 80 0 80 0 0 75 c0 65 2 75 18 76 9 0 44 1 77 2 l60 2 3 77 3
77 77 3 77 3 3 78 3 77 -1031 0 -1030 0 0 -80z"/>
</g>
</svg>
